<?xml version="1.0" encoding="UTF-8" standalone="no"?>
<svg width="312px" height="312px" viewBox="0 0 312 312" version="1.1" xmlns="http://www.w3.org/2000/svg" xmlns:xlink="http://www.w3.org/1999/xlink">
    <!-- Generator: Sketch 3.8.3 (29802) - http://www.bohemiancoding.com/sketch -->
    <title>Instagram New Logo</title>
    <desc>Created with Sketch.</desc>
    <defs>
        <rect id="path-1" x="0" y="0" width="312" height="312" rx="13"></rect>
        <linearGradient x1="17.9393583%" y1="15.465716%" x2="83.1623559%" y2="85.2036559%" id="linearGradient-3">
            <stop stop-color="#395DFA" offset="0%"></stop>
            <stop stop-color="#544CED" offset="21.6534791%"></stop>
            <stop stop-color="#903ACD" offset="44.7643908%"></stop>
            <stop stop-color="#D53592" offset="68.3389075%"></stop>
            <stop stop-color="#F4306D" offset="100%"></stop>
        </linearGradient>
        <filter x="-50%" y="-50%" width="200%" height="200%" filterUnits="objectBoundingBox" id="filter-4">
            <feGaussianBlur stdDeviation="10" in="SourceGraphic"></feGaussianBlur>
        </filter>
        <filter x="-50%" y="-50%" width="200%" height="200%" filterUnits="objectBoundingBox" id="filter-5">
            <feGaussianBlur stdDeviation="50" in="SourceGraphic"></feGaussianBlur>
        </filter>
        <filter x="-50%" y="-50%" width="200%" height="200%" filterUnits="objectBoundingBox" id="filter-6">
            <feGaussianBlur stdDeviation="24" in="SourceGraphic"></feGaussianBlur>
        </filter>
        <filter x="-50%" y="-50%" width="200%" height="200%" filterUnits="objectBoundingBox" id="filter-7">
            <feGaussianBlur stdDeviation="21.2742417" in="SourceGraphic"></feGaussianBlur>
        </filter>
        <filter x="-50%" y="-50%" width="200%" height="200%" filterUnits="objectBoundingBox" id="filter-8">
            <feGaussianBlur stdDeviation="24" in="SourceGraphic"></feGaussianBlur>
        </filter>
        <filter x="-50%" y="-50%" width="200%" height="200%" filterUnits="objectBoundingBox" id="filter-9">
            <feGaussianBlur stdDeviation="48.3824678" in="SourceGraphic"></feGaussianBlur>
        </filter>
        <path d="M0,67.0067039 C0,29.9999232 30.0031027,0 67.0067039,0 L164.993296,0 C202.000077,0 232,30.0031027 232,67.0067039 L232,164.993296 C232,202.000077 201.996897,232 164.993296,232 L67.0067039,232 C29.9999232,232 0,201.996897 0,164.993296 L0,67.0067039 Z M21,69.0063925 C21,42.493194 42.4951384,21 69.0063925,21 L162.993608,21 C189.506806,21 211,42.4951384 211,69.0063925 L211,162.993608 C211,189.506806 189.504862,211 162.993608,211 L69.0063925,211 C42.493194,211 21,189.504862 21,162.993608 L21,69.0063925 Z" id="path-10"></path>
        <filter x="-50%" y="-50%" width="200%" height="200%" filterUnits="objectBoundingBox" id="filter-11">
            <feOffset dx="0" dy="2" in="SourceAlpha" result="shadowOffsetOuter1"></feOffset>
            <feGaussianBlur stdDeviation="5" in="shadowOffsetOuter1" result="shadowBlurOuter1"></feGaussianBlur>
            <feColorMatrix values="0 0 0 0 0   0 0 0 0 0   0 0 0 0 0  0 0 0 0.0624716938 0" type="matrix" in="shadowBlurOuter1"></feColorMatrix>
        </filter>
        <path d="M116,175 C148.5848,175 175,148.5848 175,116 C175,83.4151998 148.5848,57 116,57 C83.4151998,57 57,83.4151998 57,116 C57,148.5848 83.4151998,175 116,175 Z M116,154 C136.98682,154 154,136.98682 154,116 C154,95.0131795 136.98682,78 116,78 C95.0131795,78 78,95.0131795 78,116 C78,136.98682 95.0131795,154 116,154 Z" id="path-12"></path>
        <filter x="-50%" y="-50%" width="200%" height="200%" filterUnits="objectBoundingBox" id="filter-13">
            <feOffset dx="0" dy="2" in="SourceAlpha" result="shadowOffsetOuter1"></feOffset>
            <feGaussianBlur stdDeviation="5" in="shadowOffsetOuter1" result="shadowBlurOuter1"></feGaussianBlur>
            <feColorMatrix values="0 0 0 0 0   0 0 0 0 0   0 0 0 0 0  0 0 0 0.05 0" type="matrix" in="shadowBlurOuter1"></feColorMatrix>
        </filter>
    </defs>
    <g id="Page-1" stroke="none" stroke-width="1" fill="none" fill-rule="evenodd">
        <g id="Dribbble" transform="translate(-244.000000, -80.000000)">
            <g id="Instagram-New-Logo" transform="translate(244.000000, 80.000000)">
                <g id="Color-background">
                    <mask id="mask-2" fill="white">
                        <use xlink:href="#path-1"></use>
                    </mask>
                    <use id="round-shape" fill="#C5C5C5" xlink:href="#path-1"></use>
                    <ellipse id="bottom" fill="url(#linearGradient-3)" filter="url(#filter-4)" mask="url(#mask-2)" cx="160.813524" cy="139.853408" rx="229.074279" ry="235.771147"></ellipse>
                    <ellipse id="Oval-12" fill="#F8443E" filter="url(#filter-5)" mask="url(#mask-2)" cx="95.7748471" cy="295.65193" rx="191.662651" ry="197.265809"></ellipse>
                    <ellipse id="Oval-13" fill="#F86737" filter="url(#filter-6)" mask="url(#mask-2)" cx="91.170339" cy="328.825759" rx="158.279967" ry="162.907199"></ellipse>
                    <ellipse id="Oval-13" fill="#F88330" filter="url(#filter-7)" mask="url(#mask-2)" cx="94.6237201" cy="331.195319" rx="131.804045" ry="135.657268"></ellipse>
                    <ellipse id="Oval-13" fill="#FBBB45" filter="url(#filter-8)" mask="url(#mask-2)" cx="94.6237201" cy="346.597454" rx="116.839394" ry="120.255133"></ellipse>
                    <ellipse id="Oval-13" fill="#FBE18A" filter="url(#filter-9)" mask="url(#mask-2)" cx="93.472593" cy="361.999589" rx="101.874742" ry="104.852997"></ellipse>
                </g>
                <g id="Glyph" transform="translate(40.000000, 40.000000)">
                    <g id="Combined-Shape">
                        <use fill="black" fill-opacity="1" filter="url(#filter-11)" xlink:href="#path-10"></use>
                        <use fill="#FFFFFF" fill-rule="evenodd" xlink:href="#path-10"></use>
                    </g>
                    <g id="Combined-Shape">
                        <use fill="black" fill-opacity="1" filter="url(#filter-13)" xlink:href="#path-12"></use>
                        <use fill="#FFFFFF" fill-rule="evenodd" xlink:href="#path-12"></use>
                    </g>
                    <circle id="Oval-22" fill="#FFFFFF" cx="177" cy="54" r="14"></circle>
                </g>
            </g>
        </g>
    </g>
</svg>