<?xml version="1.0" encoding="UTF-8" standalone="no"?>
<svg width="256px" height="256px" viewBox="0 0 256 256" version="1.1" xmlns="http://www.w3.org/2000/svg" xmlns:xlink="http://www.w3.org/1999/xlink">
    <!-- Generator: Sketch 3.8.3 (29802) - http://www.bohemiancoding.com/sketch -->
    <title>twitter</title>
    <desc>Created with Sketch.</desc>
    <defs></defs>
    <g id="Page-1" stroke="none" stroke-width="1" fill="none" fill-rule="evenodd">
        <g id="Artboard-1" transform="translate(-6.000000, -6.000000)">
            <g id="twitter" transform="translate(6.000000, 6.000000)">
                <rect id="Rectangle-1" fill="#55ACEE" x="0" y="0" width="256" height="256" rx="13"></rect>
                <path d="M220.898656,70.7448538 C214.09557,73.7546174 206.784569,75.7887886 199.111062,76.7036595 C206.943504,72.0200058 212.958002,64.6038836 215.790424,55.7675522 C208.461162,60.1037438 200.342638,63.2531669 191.701995,64.9506709 C184.781907,57.5959448 174.923215,53 164.012849,53 C143.062537,53 126.07748,69.9433297 126.07748,90.8416547 C126.07748,93.8075639 126.41361,96.6958845 127.06017,99.4654607 C95.5329169,97.8873757 67.5813586,82.8216906 48.8716896,59.9269767 C45.6064249,65.5160558 43.7357286,72.0166325 43.7357286,78.9517053 C43.7357286,92.0803739 50.4333085,103.663342 60.6118987,110.44931 C54.3931521,110.252977 48.5443515,108.55075 43.4293563,105.716404 C43.4266511,105.87428 43.4266511,106.032831 43.4266511,106.192056 C43.4266511,124.527258 56.5025888,139.822336 73.8562396,143.298306 C70.6728095,144.163251 67.3216524,144.625409 63.8616081,144.625409 C61.4173937,144.625409 59.0408113,144.388594 56.7250975,143.946677 C61.5519811,158.981327 75.561238,169.921996 92.160794,170.227628 C79.1781882,180.376893 62.8214305,186.426782 45.0491386,186.426782 C41.9874458,186.426782 38.9676846,186.24799 36,185.898504 C52.7875725,196.635419 72.7274644,202.899857 94.1498461,202.899857 C163.92425,202.899857 202.079423,145.236672 202.079423,95.2297969 C202.079423,93.5889665 202.042902,91.9569068 201.969859,90.3342926 C209.380955,84.9988946 215.812742,78.3336951 220.898656,70.7448538" id="Shape" fill="#FFFFFF"></path>
            </g>
        </g>
    </g>
</svg>